<?xml version="1.0" encoding="UTF-8"?>
<svg xmlns="http://www.w3.org/2000/svg" xmlns:xlink="http://www.w3.org/1999/xlink" viewBox="0 0 24 24" width="24px" height="24px">
<g id="surface159523">
<path style=" stroke:none;fill-rule:nonzero;fill:rgb(23.137255%,18.039216%,78.823531%);fill-opacity:1;" d="M 11.929688 0 C 11.800781 0.0078125 11.675781 0.0585938 11.578125 0.148438 C 10.523438 1.238281 9.902344 2.664062 9.832031 4.167969 C 9.902344 5.675781 10.523438 7.101562 11.578125 8.195312 L 12.046875 8.652344 L 12.75 9.34375 L 15.449219 11.996094 L 12.75 14.652344 L 13.171875 15.066406 C 14.429688 16.347656 15.164062 18.042969 15.230469 19.824219 C 15.230469 20.269531 15.175781 20.714844 15.074219 21.148438 L 23.253906 13.105469 C 23.875 12.492188 23.875 11.5 23.253906 10.890625 L 12.328125 0.148438 C 12.222656 0.046875 12.078125 -0.00390625 11.929688 0 Z M 8.925781 2.847656 L 0.746094 10.890625 C 0.125 11.5 0.125 12.492188 0.746094 13.105469 L 11.667969 23.851562 C 11.878906 24.054688 12.214844 24.054688 12.421875 23.851562 C 13.476562 22.757812 14.097656 21.332031 14.167969 19.828125 C 14.097656 18.324219 13.476562 16.894531 12.421875 15.804688 L 8.550781 11.996094 L 11.25 9.34375 L 10.828125 8.929688 C 9.570312 7.644531 8.835938 5.949219 8.769531 4.167969 C 8.773438 3.722656 8.824219 3.28125 8.925781 2.847656 Z M 8.925781 2.847656 "/>
</g>
</svg>
